<?xml version="1.0" encoding="utf-8"?>
<!-- Generator: Adobe Illustrator 23.0.1, SVG Export Plug-In . SVG Version: 6.00 Build 0)  -->
<svg version="1.1" id="图层_1" xmlns="http://www.w3.org/2000/svg" xmlns:xlink="http://www.w3.org/1999/xlink" x="0px" y="0px"
	 viewBox="0 0 800 800" style="enable-background:new 0 0 800 800;" xml:space="preserve">
<style type="text/css">
	.st0{fill:none;stroke:url(#SVGID_1_);stroke-width:2;stroke-miterlimit:10;}
	.st1{fill:none;stroke:url(#SVGID_2_);stroke-width:2;stroke-miterlimit:10;}
	.st2{fill:none;stroke:url(#SVGID_3_);stroke-width:2;stroke-miterlimit:10;}
	.st3{fill:url(#SVGID_4_);}
	.st4{fill:url(#SVGID_5_);}
	.st5{fill:url(#SVGID_6_);}
	.st6{fill:none;stroke:#BFECFE;stroke-miterlimit:10;}
	.st7{fill:#BFECFE;}
	.st8{fill:url(#SVGID_7_);}
	.st9{fill:url(#SVGID_8_);}
	.st10{fill:url(#SVGID_9_);}
	.st11{fill:#1988DC;}
	.st12{fill:#FCA730;}
	.st13{fill:none;stroke:url(#SVGID_10_);stroke-width:2;stroke-miterlimit:10;}
	.st14{fill:none;stroke:url(#SVGID_11_);stroke-width:2;stroke-miterlimit:10;}
	.st15{fill:none;stroke:url(#SVGID_12_);stroke-width:2;stroke-miterlimit:10;}
	.st16{fill:#184EB9;}
	.st17{fill:#7BCCFD;}
	.st18{fill:url(#SVGID_13_);}
	.st19{fill:#A8E2FD;}
	.st20{fill:#8CD3FC;}
	.st21{fill:url(#SVGID_14_);}
	.st22{fill:none;stroke:#FFFFFF;stroke-width:0.8;stroke-miterlimit:10;}
	.st23{fill:url(#SVGID_15_);}
	.st24{fill:url(#SVGID_16_);}
	.st25{fill:url(#SVGID_17_);}
	.st26{fill:url(#SVGID_18_);}
	.st27{fill:url(#SVGID_19_);}
	.st28{fill:url(#SVGID_20_);}
	.st29{fill:url(#SVGID_21_);}
	.st30{fill:url(#SVGID_22_);}
	.st31{fill:url(#SVGID_23_);}
	.st32{fill:url(#SVGID_24_);}
	.st33{fill:url(#SVGID_25_);}
	.st34{fill:url(#SVGID_26_);}
	.st35{fill:url(#SVGID_27_);}
	.st36{fill:url(#SVGID_28_);}
	.st37{fill:url(#SVGID_29_);}
	.st38{fill:url(#SVGID_30_);}
	.st39{fill:url(#SVGID_31_);}
	.st40{fill:url(#SVGID_32_);}
	.st41{fill:#FFFFFF;}
	.st42{font-family:'PingFangSC-Light-GBpc-EUC-H';}
	.st43{font-size:18px;}
</style>
<g>
	<linearGradient id="SVGID_1_" gradientUnits="userSpaceOnUse" x1="237.2195" y1="507.5574" x2="332.616" y2="507.5574">
		<stop  offset="0.2095" style="stop-color:#1842B1"/>
		<stop  offset="0.8088" style="stop-color:#21BDF9"/>
	</linearGradient>
	<polyline class="st0" points="332.08,448.08 239.08,507.3 332.08,567.04 	"/>
	<linearGradient id="SVGID_2_" gradientUnits="userSpaceOnUse" x1="235.2195" y1="302.547" x2="330.616" y2="302.547">
		<stop  offset="0.2095" style="stop-color:#1842B1"/>
		<stop  offset="0.8088" style="stop-color:#21BDF9"/>
	</linearGradient>
	<polyline class="st1" points="330.08,243.07 237.08,302.29 330.08,362.03 	"/>
	<linearGradient id="SVGID_3_" gradientUnits="userSpaceOnUse" x1="465.5411" y1="305.2802" x2="554.9397" y2="305.2802">
		<stop  offset="0.2095" style="stop-color:#1842B1"/>
		<stop  offset="0.8088" style="stop-color:#21BDF9"/>
	</linearGradient>
	<polyline class="st2" points="467.82,360.03 553.08,305.55 466.08,250.54 	"/>
	<linearGradient id="SVGID_4_" gradientUnits="userSpaceOnUse" x1="379.1272" y1="192.8082" x2="416.5268" y2="257.5862">
		<stop  offset="0" style="stop-color:#3DCDFA"/>
		<stop  offset="0.9841" style="stop-color:#1667C9"/>
	</linearGradient>
	<polygon class="st3" points="331.55,224.96 397.25,182.35 463.83,224.96 397.69,268.46 	"/>
	<linearGradient id="SVGID_5_" gradientUnits="userSpaceOnUse" x1="328.1107" y1="228.4005" x2="401.1304" y2="301.4202">
		<stop  offset="0.1217" style="stop-color:#37BCF2"/>
		<stop  offset="0.8889" style="stop-color:#1C76D0"/>
	</linearGradient>
	<polygon class="st4" points="331.55,261.36 331.55,224.96 397.69,268.46 397.69,304.86 	"/>
	<linearGradient id="SVGID_6_" gradientUnits="userSpaceOnUse" x1="456.134" y1="220.5173" x2="405.0015" y2="309.0815">
		<stop  offset="0.1217" style="stop-color:#37BCF2"/>
		<stop  offset="0.8889" style="stop-color:#1C76D0"/>
	</linearGradient>
	<polygon class="st5" points="463.83,260.47 463.83,224.96 397.69,268.46 397.69,304.86 	"/>
	<polygon class="st6" points="456.95,235.61 404.57,270.24 404.57,294.21 456.95,259.58 	"/>
	<polygon class="st7" points="419.44,280.89 415.89,283.55 415.89,265.8 419.44,263.13 	"/>
	<polygon class="st7" points="425.66,277.01 422.1,279.67 422.1,261.91 425.66,259.25 	"/>
	<polygon class="st7" points="431.87,273.12 428.32,275.79 428.32,258.03 431.87,255.37 	"/>
	<polygon class="st7" points="438.08,269.24 434.53,271.9 434.53,254.15 438.08,251.48 	"/>
	<polygon class="st7" points="444.3,265.35 440.75,268.02 440.75,250.26 444.3,247.6 	"/>
	<circle class="st7" cx="450.51" cy="252.93" r="3.33"/>
	<circle class="st7" cx="410.78" cy="278.23" r="3.33"/>
	<linearGradient id="SVGID_7_" gradientUnits="userSpaceOnUse" x1="379.1272" y1="131.9955" x2="416.5268" y2="196.7735">
		<stop  offset="0" style="stop-color:#3DCDFA"/>
		<stop  offset="0.9841" style="stop-color:#1667C9"/>
	</linearGradient>
	<polygon class="st8" points="331.55,164.15 397.25,121.53 463.83,164.15 397.69,207.65 	"/>
	<linearGradient id="SVGID_8_" gradientUnits="userSpaceOnUse" x1="328.1107" y1="167.5878" x2="401.1304" y2="240.6075">
		<stop  offset="0.1217" style="stop-color:#37BCF2"/>
		<stop  offset="0.8889" style="stop-color:#1C76D0"/>
	</linearGradient>
	<polygon class="st9" points="331.55,200.55 331.55,164.15 397.69,207.65 397.69,244.05 	"/>
	<linearGradient id="SVGID_9_" gradientUnits="userSpaceOnUse" x1="456.134" y1="159.7046" x2="405.0015" y2="248.2687">
		<stop  offset="0.1217" style="stop-color:#37BCF2"/>
		<stop  offset="0.8889" style="stop-color:#1C76D0"/>
	</linearGradient>
	<polygon class="st10" points="463.83,199.66 463.83,164.15 397.69,207.65 397.69,244.05 	"/>
	<polygon class="st6" points="456.95,174.8 404.57,209.42 404.57,233.39 456.95,198.77 	"/>
	<polygon class="st7" points="419.44,220.08 415.89,222.74 415.89,204.99 419.44,202.32 	"/>
	<polygon class="st7" points="425.66,216.19 422.1,218.86 422.1,201.1 425.66,198.44 	"/>
	<polygon class="st7" points="431.87,212.31 428.32,214.97 428.32,197.22 431.87,194.55 	"/>
	<polygon class="st7" points="438.08,208.43 434.53,211.09 434.53,193.33 438.08,190.67 	"/>
	<polygon class="st7" points="444.3,204.54 440.75,207.2 440.75,189.45 444.3,186.79 	"/>
	<circle class="st7" cx="450.51" cy="192.11" r="3.33"/>
	<circle class="st7" cx="410.78" cy="217.41" r="3.33"/>
	<polygon class="st7" points="341.67,207.2 341.67,231.62 347.75,235.61 347.58,211.09 	"/>
	<polygon class="st11" points="347.58,211.09 347.75,235.61 355.52,230.73 355.52,215.86 	"/>
	<polygon class="st7" points="390.59,239.38 390.59,263.79 397.69,268.46 397.69,244.05 	"/>
	<polygon class="st11" points="404.57,239.38 404.57,263.13 397.69,268.46 397.69,244.05 	"/>
	<polygon class="st7" points="443.22,213.2 443.22,225.13 450.51,228.51 450.44,208.65 	"/>
	<polygon class="st12" points="191.76,320.8 192.58,341.74 185.33,347.55 185.24,325.17 	"/>
	<linearGradient id="SVGID_10_" gradientUnits="userSpaceOnUse" x1="158.7798" y1="403.289" x2="319.319" y2="403.289">
		<stop  offset="0.2095" style="stop-color:#1842B1"/>
		<stop  offset="0.8088" style="stop-color:#21BDF9"/>
	</linearGradient>
	<polyline class="st13" points="159.33,402.55 208.08,434.3 303.08,372.3 318.72,384.05 	"/>
	<linearGradient id="SVGID_11_" gradientUnits="userSpaceOnUse" x1="554.7974" y1="366.3171" x2="554.7974" y2="434.5075">
		<stop  offset="0.2095" style="stop-color:#1842B1"/>
		<stop  offset="0.8088" style="stop-color:#21BDF9"/>
	</linearGradient>
	<polyline class="st14" points="473.82,379.79 490.08,367.55 586.08,433.3 635.83,400.43 	"/>
	<linearGradient id="SVGID_12_" gradientUnits="userSpaceOnUse" x1="462.5411" y1="512.2906" x2="551.9397" y2="512.2906">
		<stop  offset="0.2095" style="stop-color:#1842B1"/>
		<stop  offset="0.8088" style="stop-color:#21BDF9"/>
	</linearGradient>
	<polyline class="st15" points="464.82,567.04 550.08,512.56 463.08,457.55 	"/>
	<ellipse class="st16" cx="396.58" cy="409.38" rx="94.7" ry="71.64"/>
	<ellipse class="st17" cx="396.58" cy="401.35" rx="94.7" ry="71.64"/>
	<linearGradient id="SVGID_13_" gradientUnits="userSpaceOnUse" x1="474.9388" y1="399.5502" x2="323.7504" y2="399.5502">
		<stop  offset="0" style="stop-color:#3DCDFA"/>
		<stop  offset="0.9841" style="stop-color:#1667C9"/>
	</linearGradient>
	<path class="st18" d="M323.75,345.97v62.58c0,0,4.43,44.29,79.75,44.58c0,0,63.13-3.6,71.44-44.58v-62.58H323.75z"/>
	<ellipse class="st19" cx="399.34" cy="345.97" rx="75.59" ry="41.53"/>
	<ellipse class="st20" cx="399.9" cy="345.97" rx="54.43" ry="29.91"/>
	<linearGradient id="SVGID_14_" gradientUnits="userSpaceOnUse" x1="399.8984" y1="275.0852" x2="399.8984" y2="363.14">
		<stop  offset="0" style="stop-color:#185CC1"/>
		<stop  offset="0.9841" style="stop-color:#1EAAEF"/>
	</linearGradient>
	<circle class="st21" cx="399.9" cy="319.11" r="44.03"/>
	<path class="st22" d="M443.02,311.92c17.54,12.42,27.19,25.99,23.29,35.23c-5.78,13.69-39.07,12.71-74.36-2.18
		s-59.22-38.06-53.44-51.75c4.02-9.53,21.38-11.95,43.47-7.51"/>
	<path class="st22" d="M358.71,313.28c-17.54,12.42-27.19,25.99-23.29,35.23c5.78,13.69,39.07,12.71,74.36-2.18
		c35.29-14.89,59.22-38.06,53.44-51.75c-4.02-9.53-21.38-11.95-43.47-7.51"/>
	<linearGradient id="SVGID_15_" gradientUnits="userSpaceOnUse" x1="138.1519" y1="317.7778" x2="175.5515" y2="382.5558">
		<stop  offset="0" style="stop-color:#3DCDFA"/>
		<stop  offset="0.9841" style="stop-color:#1667C9"/>
	</linearGradient>
	<polygon class="st23" points="90.58,349.93 156.27,307.32 222.85,349.93 156.71,393.43 	"/>
	<linearGradient id="SVGID_16_" gradientUnits="userSpaceOnUse" x1="87.1354" y1="353.3702" x2="160.1551" y2="426.3898">
		<stop  offset="0.1217" style="stop-color:#37BCF2"/>
		<stop  offset="0.8889" style="stop-color:#1C76D0"/>
	</linearGradient>
	<polygon class="st24" points="90.58,386.33 90.58,349.93 156.71,393.43 156.71,429.83 	"/>
	<linearGradient id="SVGID_17_" gradientUnits="userSpaceOnUse" x1="215.1587" y1="345.4869" x2="164.0262" y2="434.0511">
		<stop  offset="0.1217" style="stop-color:#37BCF2"/>
		<stop  offset="0.8889" style="stop-color:#1C76D0"/>
	</linearGradient>
	<polygon class="st25" points="222.85,385.44 222.85,349.93 156.71,393.43 156.71,429.83 	"/>
	<polygon class="st6" points="215.97,360.58 163.6,395.21 163.6,419.18 215.97,384.55 	"/>
	<polygon class="st7" points="178.47,405.86 174.91,408.52 174.91,390.77 178.47,388.1 	"/>
	<polygon class="st7" points="184.68,401.98 181.13,404.64 181.13,386.88 184.68,384.22 	"/>
	<polygon class="st7" points="190.89,398.09 187.34,400.76 187.34,383 190.89,380.34 	"/>
	<polygon class="st7" points="197.11,394.21 193.56,396.87 193.56,379.12 197.11,376.45 	"/>
	<polygon class="st7" points="203.32,390.32 199.77,392.99 199.77,375.23 203.32,372.57 	"/>
	<circle class="st7" cx="209.54" cy="377.89" r="3.33"/>
	<circle class="st7" cx="169.81" cy="403.2" r="3.33"/>
	<linearGradient id="SVGID_18_" gradientUnits="userSpaceOnUse" x1="138.1519" y1="256.9651" x2="175.5515" y2="321.7431">
		<stop  offset="0" style="stop-color:#3DCDFA"/>
		<stop  offset="0.9841" style="stop-color:#1667C9"/>
	</linearGradient>
	<polygon class="st26" points="90.58,289.12 156.27,246.5 222.85,289.12 156.71,332.62 	"/>
	<linearGradient id="SVGID_19_" gradientUnits="userSpaceOnUse" x1="87.1354" y1="292.5574" x2="160.1551" y2="365.5771">
		<stop  offset="0.1217" style="stop-color:#37BCF2"/>
		<stop  offset="0.8889" style="stop-color:#1C76D0"/>
	</linearGradient>
	<polygon class="st27" points="90.58,325.52 90.58,289.12 156.71,332.62 156.71,369.02 	"/>
	<linearGradient id="SVGID_20_" gradientUnits="userSpaceOnUse" x1="215.1587" y1="284.6742" x2="164.0262" y2="373.2384">
		<stop  offset="0.1217" style="stop-color:#37BCF2"/>
		<stop  offset="0.8889" style="stop-color:#1C76D0"/>
	</linearGradient>
	<polygon class="st28" points="222.85,324.63 222.85,289.12 156.71,332.62 156.71,369.02 	"/>
	<polygon class="st6" points="215.97,299.77 163.6,334.39 163.6,358.36 215.97,323.74 	"/>
	<polygon class="st7" points="178.47,345.05 174.91,347.71 174.91,329.96 178.47,327.29 	"/>
	<polygon class="st7" points="184.68,341.16 181.13,343.83 181.13,326.07 184.68,323.41 	"/>
	<polygon class="st7" points="190.89,337.28 187.34,339.94 187.34,322.19 190.89,319.52 	"/>
	<polygon class="st7" points="197.11,333.4 193.56,336.06 193.56,318.3 197.11,315.64 	"/>
	<polygon class="st7" points="203.32,329.51 199.77,332.17 199.77,314.42 203.32,311.76 	"/>
	<circle class="st7" cx="209.54" cy="317.08" r="3.33"/>
	<circle class="st7" cx="169.81" cy="342.38" r="3.33"/>
	<polygon class="st7" points="100.7,332.17 100.7,356.59 106.77,360.58 106.6,336.06 	"/>
	<polygon class="st11" points="106.6,336.06 106.77,360.58 114.55,355.7 114.55,340.83 	"/>
	<polygon class="st7" points="149.61,364.35 149.61,388.76 156.71,393.43 156.71,369.02 	"/>
	<polygon class="st11" points="163.6,364.35 163.6,388.1 156.71,393.43 156.71,369.02 	"/>
	<polygon class="st7" points="202.25,338.17 202.25,350.1 209.54,353.48 209.46,333.62 	"/>
	<linearGradient id="SVGID_21_" gradientUnits="userSpaceOnUse" x1="626.8731" y1="317.7778" x2="664.2727" y2="382.5558">
		<stop  offset="0" style="stop-color:#3DCDFA"/>
		<stop  offset="0.9841" style="stop-color:#1667C9"/>
	</linearGradient>
	<polygon class="st29" points="579.3,349.93 644.99,307.32 711.58,349.93 645.44,393.43 	"/>
	<linearGradient id="SVGID_22_" gradientUnits="userSpaceOnUse" x1="575.8566" y1="353.3702" x2="648.8763" y2="426.3898">
		<stop  offset="0.1217" style="stop-color:#37BCF2"/>
		<stop  offset="0.8889" style="stop-color:#1C76D0"/>
	</linearGradient>
	<polygon class="st30" points="579.3,386.33 579.3,349.93 645.44,393.43 645.44,429.83 	"/>
	<linearGradient id="SVGID_23_" gradientUnits="userSpaceOnUse" x1="703.8799" y1="345.4869" x2="652.7474" y2="434.0511">
		<stop  offset="0.1217" style="stop-color:#37BCF2"/>
		<stop  offset="0.8889" style="stop-color:#1C76D0"/>
	</linearGradient>
	<polygon class="st31" points="711.58,385.44 711.58,349.93 645.44,393.43 645.44,429.83 	"/>
	<polygon class="st6" points="704.7,360.58 652.32,395.21 652.32,419.18 704.7,384.55 	"/>
	<polygon class="st7" points="667.19,405.86 663.64,408.52 663.64,390.77 667.19,388.1 	"/>
	<polygon class="st7" points="673.4,401.98 669.85,404.64 669.85,386.88 673.4,384.22 	"/>
	<polygon class="st7" points="679.62,398.09 676.06,400.76 676.06,383 679.62,380.34 	"/>
	<polygon class="st7" points="685.83,394.21 682.28,396.87 682.28,379.12 685.83,376.45 	"/>
	<polygon class="st7" points="692.04,390.32 688.49,392.99 688.49,375.23 692.04,372.57 	"/>
	<circle class="st7" cx="698.26" cy="377.89" r="3.33"/>
	<circle class="st7" cx="658.53" cy="403.2" r="3.33"/>
	<linearGradient id="SVGID_24_" gradientUnits="userSpaceOnUse" x1="626.8731" y1="256.9651" x2="664.2727" y2="321.7431">
		<stop  offset="0" style="stop-color:#3DCDFA"/>
		<stop  offset="0.9841" style="stop-color:#1667C9"/>
	</linearGradient>
	<polygon class="st32" points="579.3,289.12 644.99,246.5 711.58,289.12 645.44,332.62 	"/>
	<linearGradient id="SVGID_25_" gradientUnits="userSpaceOnUse" x1="575.8566" y1="292.5574" x2="648.8763" y2="365.5771">
		<stop  offset="0.1217" style="stop-color:#37BCF2"/>
		<stop  offset="0.8889" style="stop-color:#1C76D0"/>
	</linearGradient>
	<polygon class="st33" points="579.3,325.52 579.3,289.12 645.44,332.62 645.44,369.02 	"/>
	<linearGradient id="SVGID_26_" gradientUnits="userSpaceOnUse" x1="703.8799" y1="284.6742" x2="652.7474" y2="373.2384">
		<stop  offset="0.1217" style="stop-color:#37BCF2"/>
		<stop  offset="0.8889" style="stop-color:#1C76D0"/>
	</linearGradient>
	<polygon class="st34" points="711.58,324.63 711.58,289.12 645.44,332.62 645.44,369.02 	"/>
	<polygon class="st6" points="704.7,299.77 652.32,334.39 652.32,358.36 704.7,323.74 	"/>
	<polygon class="st7" points="667.19,345.05 663.64,347.71 663.64,329.96 667.19,327.29 	"/>
	<polygon class="st7" points="673.4,341.16 669.85,343.83 669.85,326.07 673.4,323.41 	"/>
	<polygon class="st7" points="679.62,337.28 676.06,339.94 676.06,322.19 679.62,319.52 	"/>
	<polygon class="st7" points="685.83,333.4 682.28,336.06 682.28,318.3 685.83,315.64 	"/>
	<polygon class="st7" points="692.04,329.51 688.49,332.17 688.49,314.42 692.04,311.76 	"/>
	<circle class="st7" cx="698.26" cy="317.08" r="3.33"/>
	<circle class="st7" cx="658.53" cy="342.38" r="3.33"/>
	<polygon class="st7" points="589.42,332.17 589.42,356.59 595.49,360.58 595.33,336.06 	"/>
	<polygon class="st11" points="595.33,336.06 595.49,360.58 603.27,355.7 603.27,340.83 	"/>
	<polygon class="st7" points="638.33,364.35 638.33,388.76 645.44,393.43 645.44,369.02 	"/>
	<polygon class="st11" points="652.32,364.35 652.32,388.1 645.44,393.43 645.44,369.02 	"/>
	<polygon class="st11" points="690.97,338.17 690.97,350.1 698.26,353.48 698.18,333.62 	"/>
	<linearGradient id="SVGID_27_" gradientUnits="userSpaceOnUse" x1="380.5125" y1="531.7933" x2="417.912" y2="596.5713">
		<stop  offset="0" style="stop-color:#3DCDFA"/>
		<stop  offset="0.9841" style="stop-color:#1667C9"/>
	</linearGradient>
	<polygon class="st35" points="332.94,563.95 398.63,521.33 465.21,563.95 399.08,607.45 	"/>
	<linearGradient id="SVGID_28_" gradientUnits="userSpaceOnUse" x1="329.496" y1="567.3856" x2="402.5157" y2="640.4053">
		<stop  offset="0.1217" style="stop-color:#37BCF2"/>
		<stop  offset="0.8889" style="stop-color:#1C76D0"/>
	</linearGradient>
	<polyline class="st36" points="399.08,643.85 332.94,600.34 332.94,563.95 399.08,607.45 399.08,643.85 	"/>
	<linearGradient id="SVGID_29_" gradientUnits="userSpaceOnUse" x1="457.5193" y1="559.5024" x2="406.3867" y2="648.0665">
		<stop  offset="0.1217" style="stop-color:#37BCF2"/>
		<stop  offset="0.8889" style="stop-color:#1C76D0"/>
	</linearGradient>
	<polyline class="st37" points="399.08,643.85 465.21,599.46 465.21,563.95 399.08,607.45 399.08,643.85 	"/>
	<polyline class="st6" points="405.96,633.19 458.33,598.57 458.33,574.6 405.96,609.22 405.96,633.19 	"/>
	<polyline class="st7" points="417.27,622.54 417.27,604.78 420.83,602.12 420.83,619.88 	"/>
	<polyline class="st7" points="423.49,618.65 423.49,600.9 427.04,598.24 427.04,615.99 423.49,618.65 	"/>
	<polygon class="st7" points="433.25,612.11 429.7,614.77 429.7,597.02 433.25,594.35 	"/>
	<polygon class="st7" points="439.47,608.22 435.92,610.89 435.92,593.13 439.47,590.47 	"/>
	<polygon class="st7" points="445.68,604.34 442.13,607 442.13,589.25 445.68,586.58 	"/>
	<circle class="st7" cx="451.9" cy="591.91" r="3.33"/>
	<circle class="st7" cx="412.17" cy="616.65" r="3.33"/>
	<linearGradient id="SVGID_30_" gradientUnits="userSpaceOnUse" x1="380.5125" y1="470.9806" x2="417.912" y2="535.7585">
		<stop  offset="0" style="stop-color:#3DCDFA"/>
		<stop  offset="0.9841" style="stop-color:#1667C9"/>
	</linearGradient>
	<polygon class="st38" points="332.94,503.13 398.63,460.52 465.21,503.13 399.08,546.63 	"/>
	<linearGradient id="SVGID_31_" gradientUnits="userSpaceOnUse" x1="329.496" y1="506.5729" x2="402.5157" y2="579.5925">
		<stop  offset="0.1217" style="stop-color:#37BCF2"/>
		<stop  offset="0.8889" style="stop-color:#1C76D0"/>
	</linearGradient>
	<polygon class="st39" points="332.94,539.53 332.94,503.13 399.08,546.63 399.08,583.03 	"/>
	<linearGradient id="SVGID_32_" gradientUnits="userSpaceOnUse" x1="457.5193" y1="498.6897" x2="406.3867" y2="587.2538">
		<stop  offset="0.1217" style="stop-color:#37BCF2"/>
		<stop  offset="0.8889" style="stop-color:#1C76D0"/>
	</linearGradient>
	<polygon class="st40" points="465.21,538.64 465.21,503.13 399.08,546.63 399.08,583.03 	"/>
	<polygon class="st6" points="458.33,513.79 405.96,548.41 405.96,572.38 458.33,537.76 	"/>
	<polygon class="st7" points="420.83,559.06 417.27,561.73 417.27,543.97 420.83,541.31 	"/>
	<polygon class="st7" points="427.04,555.18 423.49,557.84 423.49,540.09 427.04,537.42 	"/>
	<polygon class="st7" points="433.25,551.29 429.7,553.96 429.7,536.2 433.25,533.54 	"/>
	<polygon class="st7" points="439.47,547.41 435.92,550.07 435.92,532.32 439.47,529.66 	"/>
	<polygon class="st7" points="445.68,543.53 442.13,546.19 442.13,528.43 445.68,525.77 	"/>
	<circle class="st7" cx="451.9" cy="531.1" r="3.33"/>
	<circle class="st7" cx="412.17" cy="556.4" r="3.33"/>
	<polygon class="st7" points="343.06,546.19 343.06,570.6 349.13,574.6 348.96,550.07 	"/>
	<polygon class="st11" points="348.96,550.07 349.13,574.6 356.91,569.72 356.91,554.85 	"/>
	<polygon class="st7" points="391.97,578.36 391.97,602.78 399.08,607.45 399.08,583.03 	"/>
	<polygon class="st11" points="405.96,578.36 405.96,602.12 399.08,607.45 399.08,583.03 	"/>
	<polygon class="st7" points="444.61,552.18 444.61,564.11 451.9,567.5 451.82,547.63 	"/>
	<text transform="matrix(1 0 0 1 383.5156 315.258)"><tspan x="0" y="0" class="st41 st42 st43">结果</tspan><tspan x="0" y="21.6" class="st41 st42 st43">查询</tspan></text>
</g>
</svg>
