<?xml version="1.0" encoding="utf-8"?>
<!-- Generator: Adobe Illustrator 23.0.1, SVG Export Plug-In . SVG Version: 6.00 Build 0)  -->
<svg version="1.1" id="图层_1" xmlns="http://www.w3.org/2000/svg" xmlns:xlink="http://www.w3.org/1999/xlink" x="0px" y="0px"
	 viewBox="0 0 800 800" style="enable-background:new 0 0 800 800;" xml:space="preserve">
<style type="text/css">
	.st0{fill:none;stroke:url(#SVGID_1_);stroke-width:1.6915;stroke-miterlimit:10;}
	.st1{fill:none;stroke:url(#SVGID_2_);stroke-width:1.6915;stroke-miterlimit:10;}
	.st2{fill:url(#SVGID_3_);}
	.st3{fill:none;stroke:url(#SVGID_4_);stroke-width:1.6915;stroke-miterlimit:10;}
	.st4{fill:#184EB9;}
	.st5{opacity:0.7;fill:#1DA5EB;}
	.st6{fill:url(#SVGID_5_);stroke:url(#SVGID_6_);stroke-width:0.8458;stroke-miterlimit:10;}
	.st7{fill:none;stroke:url(#SVGID_7_);stroke-width:1.6915;stroke-miterlimit:10;}
	.st8{fill:url(#SVGID_8_);stroke:url(#SVGID_9_);stroke-width:0.8458;stroke-miterlimit:10;}
	.st9{fill:none;stroke:url(#SVGID_10_);stroke-width:1.6915;stroke-miterlimit:10;}
	.st10{fill:url(#SVGID_11_);stroke:url(#SVGID_12_);stroke-width:0.8458;stroke-miterlimit:10;}
	.st11{fill:none;stroke:url(#SVGID_13_);stroke-width:1.6915;stroke-miterlimit:10;}
	.st12{fill:none;stroke:url(#SVGID_14_);stroke-width:1.6915;stroke-miterlimit:10;}
	.st13{fill:none;stroke:url(#SVGID_15_);stroke-width:1.6915;stroke-miterlimit:10;}
	.st14{fill:none;stroke:url(#SVGID_16_);stroke-width:1.6915;stroke-miterlimit:10;}
	.st15{opacity:0.3;fill:#A8E2FD;}
	.st16{fill:none;stroke:#A8E2FD;stroke-width:0.8458;stroke-miterlimit:10;}
	.st17{opacity:0.6;fill:none;stroke:#A8E2FD;stroke-width:1.6915;stroke-miterlimit:10;}
	.st18{opacity:0.13;fill:#A8E2FD;}
</style>
<linearGradient id="SVGID_1_" gradientUnits="userSpaceOnUse" x1="1085.5833" y1="647.0596" x2="729.0652" y2="647.0596" gradientTransform="matrix(0.8523 -0.5231 0.5231 0.8523 -794.9269 345.3897)">
	<stop  offset="0.2095" style="stop-color:#1842B1"/>
	<stop  offset="0.8088" style="stop-color:#21BDF9"/>
</linearGradient>
<path class="st0" d="M511.82,405.57L283.03,539.51c-1.19,0.73-2.76,0.35-3.49-0.84L125.61,449.8c-0.73-1.19-0.35-2.76,0.84-3.49
	L352.7,297.14c1.19-0.73,2.76-0.35,3.49,0.84l156.46,104.1C513.39,403.27,513.01,404.84,511.82,405.57z"/>
<linearGradient id="SVGID_2_" gradientUnits="userSpaceOnUse" x1="395.14" y1="545.1798" x2="375.7141" y2="511.5334">
	<stop  offset="0.2095" style="stop-color:#1842B1"/>
	<stop  offset="0.8088" style="stop-color:#21BDF9"/>
</linearGradient>
<path class="st1" d="M355.01,530.33c0.07,0.4,0.31,0.75,0.66,0.96l27.51,16.87c0,0,2.82,1.97,13.25-4.79l19.31-12.4
	c0,0,3.95-4.09-5.64-10.01l-20.86-11.84c0,0-2.82-2.82-11.84,2.54l-20.3,11.74C357.1,523.38,353.91,523.74,355.01,530.33z"/>
<linearGradient id="SVGID_3_" gradientUnits="userSpaceOnUse" x1="306.0235" y1="136" x2="306.0235" y2="511.2614">
	<stop  offset="0" style="stop-color:#3DCDFA"/>
	<stop  offset="0.9841" style="stop-color:#1667C9"/>
</linearGradient>
<path class="st2" d="M483.12,398.03c27.06-15.22,16.07-17.76,16.07-17.76l-144.63-83.73l-16.07-144.63
	c-2.54-22.84-14.38-14.38-14.38-14.38L128.74,250.86c-21.99,12.69-17.76,12.69-17.76,12.69l17.76,152.24l8.46,6.77l-1.69,5.92
	l126.87,73.58c23.68,14.38,26.22,7.61,26.22,7.61L483.12,398.03z"/>
<linearGradient id="SVGID_4_" gradientUnits="userSpaceOnUse" x1="889.9057" y1="695.5637" x2="697.2769" y2="695.5637" gradientTransform="matrix(0.8523 -0.5231 0.5231 0.8523 -794.9269 345.3897)">
	<stop  offset="0.2095" style="stop-color:#1842B1"/>
	<stop  offset="0.8088" style="stop-color:#21BDF9"/>
</linearGradient>
<path class="st3" d="M367.82,538.62l-96.64,54.36c-1.19,0.73-2.76,0.35-3.49-0.84l-142.93-82.96c-0.73-1.19-0.35-2.76,0.84-3.49
	l70.17-42.26"/>
<path class="st4" d="M355.01,520.74c0.07,0.4,0.31,0.75,0.66,0.96l27.51,16.87c0,0,2.82,1.97,13.25-4.79l19.31-12.4
	c0,0,3.95-4.09-5.64-10.01l-20.86-11.84c0,0-2.82-2.82-11.84,2.54l-20.3,11.74C357.1,513.8,353.91,514.16,355.01,520.74z"/>
<path class="st5" d="M362.28,520.28c0.05,0.3,0.24,0.57,0.5,0.73l20.98,12.86c0,0,2.15,1.51,10.11-3.66l14.73-9.46
	c0,0,3.01-3.12-4.3-7.63l-15.91-9.03c0,0-2.15-2.15-9.03,1.94l-15.48,8.95C363.88,514.99,361.45,515.26,362.28,520.28z"/>
<linearGradient id="SVGID_5_" gradientUnits="userSpaceOnUse" x1="363.6813" y1="516.8564" x2="407.2563" y2="516.8564">
	<stop  offset="0" style="stop-color:#3DCDFA"/>
	<stop  offset="0.9841" style="stop-color:#1667C9"/>
</linearGradient>
<linearGradient id="SVGID_6_" gradientUnits="userSpaceOnUse" x1="363.2584" y1="516.8564" x2="407.6792" y2="516.8564">
	<stop  offset="0.2095" style="stop-color:#1FB2F3"/>
	<stop  offset="0.8088" style="stop-color:#21BDF9"/>
</linearGradient>
<path class="st6" d="M363.84,518.22c0.05,0.28,0.22,0.53,0.46,0.68l19.41,11.9c0,0,1.99,1.39,9.35-3.38l13.63-8.75
	c0,0,2.78-2.88-3.98-7.06l-14.72-8.35c0,0-1.99-1.99-8.35,1.79l-14.32,8.28C365.32,513.32,363.07,513.58,363.84,518.22z"/>
<linearGradient id="SVGID_7_" gradientUnits="userSpaceOnUse" x1="403.4116" y1="498.7907" x2="466.8654" y2="498.7907">
	<stop  offset="0.2095" style="stop-color:#1842B1"/>
	<stop  offset="0.8088" style="stop-color:#21BDF9"/>
</linearGradient>
<path class="st7" d="M404.49,500.72c0.07,0.4,0.31,0.75,0.66,0.96l27.51,16.87c0,0,2.82,1.97,13.25-4.79l19.31-12.4
	c0,0,3.95-4.09-5.64-10.01l-20.86-11.84c0,0-2.82-2.82-11.84,2.54l-20.3,11.74C406.57,493.78,403.39,494.14,404.49,500.72z"/>
<path class="st4" d="M404.49,491.99c0.07,0.4,0.31,0.75,0.66,0.96l27.51,16.87c0,0,2.82,1.97,13.25-4.79l19.31-12.4
	c0,0,3.95-4.09-5.64-10.01l-20.86-11.84c0,0-2.82-2.82-11.84,2.54l-20.3,11.74C406.57,485.04,403.39,485.4,404.49,491.99z"/>
<path class="st5" d="M411.76,491.53c0.05,0.3,0.24,0.57,0.5,0.73l20.98,12.86c0,0,2.15,1.51,10.11-3.66l14.73-9.46
	c0,0,3.01-3.12-4.3-7.63l-15.91-9.03c0,0-2.15-2.15-9.03,1.94l-15.48,8.95C413.35,486.23,410.93,486.51,411.76,491.53z"/>
<linearGradient id="SVGID_8_" gradientUnits="userSpaceOnUse" x1="413.1589" y1="488.946" x2="456.7339" y2="488.946">
	<stop  offset="0" style="stop-color:#3DCDFA"/>
	<stop  offset="0.9841" style="stop-color:#1667C9"/>
</linearGradient>
<linearGradient id="SVGID_9_" gradientUnits="userSpaceOnUse" x1="412.736" y1="488.946" x2="457.1568" y2="488.946">
	<stop  offset="0.2095" style="stop-color:#1FB2F3"/>
	<stop  offset="0.8088" style="stop-color:#21BDF9"/>
</linearGradient>
<path class="st8" d="M413.32,490.31c0.05,0.28,0.22,0.53,0.46,0.68l19.41,11.9c0,0,1.99,1.39,9.35-3.38l13.63-8.75
	c0,0,2.78-2.88-3.98-7.06l-14.72-8.35c0,0-1.99-1.99-8.35,1.79l-14.32,8.28C414.79,485.41,412.55,485.67,413.32,490.31z"/>
<linearGradient id="SVGID_10_" gradientUnits="userSpaceOnUse" x1="453.735" y1="469.4933" x2="517.1887" y2="469.4933">
	<stop  offset="0.2095" style="stop-color:#1842B1"/>
	<stop  offset="0.8088" style="stop-color:#21BDF9"/>
</linearGradient>
<path class="st9" d="M454.81,471.43c0.07,0.4,0.31,0.75,0.66,0.96l27.51,16.87c0,0,2.82,1.97,13.25-4.79l19.31-12.4
	c0,0,3.95-4.09-5.64-10.01l-20.86-11.84c0,0-2.82-2.82-11.84,2.54l-20.3,11.74C456.9,464.48,453.71,464.84,454.81,471.43z"/>
<path class="st4" d="M454.81,461.84c0.07,0.4,0.31,0.75,0.66,0.96l27.51,16.87c0,0,2.82,1.97,13.25-4.79l19.31-12.4
	c0,0,3.95-4.09-5.64-10.01l-20.86-11.84c0,0-2.82-2.82-11.84,2.54l-20.3,11.74C456.9,454.9,453.71,455.26,454.81,461.84z"/>
<path class="st5" d="M462.09,461.38c0.05,0.3,0.24,0.57,0.5,0.73l20.98,12.86c0,0,2.15,1.51,10.11-3.66l14.73-9.46
	c0,0,3.01-3.12-4.3-7.63l-15.91-9.03c0,0-2.15-2.15-9.03,1.94l-15.48,8.95C463.68,456.09,461.25,456.36,462.09,461.38z"/>
<linearGradient id="SVGID_11_" gradientUnits="userSpaceOnUse" x1="463.4823" y1="458.8028" x2="507.0573" y2="458.8028">
	<stop  offset="0" style="stop-color:#3DCDFA"/>
	<stop  offset="0.9841" style="stop-color:#1667C9"/>
</linearGradient>
<linearGradient id="SVGID_12_" gradientUnits="userSpaceOnUse" x1="463.0594" y1="458.8028" x2="507.4802" y2="458.8028">
	<stop  offset="0.2095" style="stop-color:#1FB2F3"/>
	<stop  offset="0.8088" style="stop-color:#21BDF9"/>
</linearGradient>
<path class="st10" d="M463.64,460.17c0.05,0.28,0.22,0.53,0.46,0.68l19.41,11.9c0,0,1.99,1.39,9.35-3.38l13.63-8.75
	c0,0,2.78-2.88-3.98-7.06l-14.72-8.35c0,0-1.99-1.99-8.35,1.79l-14.32,8.28C465.12,455.27,462.87,455.52,463.64,460.17z"/>
<linearGradient id="SVGID_13_" gradientUnits="userSpaceOnUse" x1="510.7687" y1="423.4268" x2="693.3713" y2="423.4268">
	<stop  offset="0.2095" style="stop-color:#1842B1"/>
	<stop  offset="0.8088" style="stop-color:#21BDF9"/>
</linearGradient>
<polyline class="st11" points="511.19,454.54 619.35,392.56 692.93,437.34 "/>
<linearGradient id="SVGID_14_" gradientUnits="userSpaceOnUse" x1="504.6621" y1="530.8069" x2="679.4114" y2="530.8069">
	<stop  offset="0.2095" style="stop-color:#1842B1"/>
	<stop  offset="0.8088" style="stop-color:#21BDF9"/>
</linearGradient>
<line class="st12" x1="505.1" y1="478.76" x2="678.98" y2="582.85"/>
<linearGradient id="SVGID_15_" gradientUnits="userSpaceOnUse" x1="454.1485" y1="565.2711" x2="646.4258" y2="565.2711">
	<stop  offset="0.2095" style="stop-color:#1842B1"/>
	<stop  offset="0.8088" style="stop-color:#21BDF9"/>
</linearGradient>
<line class="st13" x1="454.58" y1="508.36" x2="645.99" y2="622.18"/>
<linearGradient id="SVGID_16_" gradientUnits="userSpaceOnUse" x1="406.9832" y1="576.7008" x2="542.4044" y2="576.7008">
	<stop  offset="0.2095" style="stop-color:#1842B1"/>
	<stop  offset="0.8088" style="stop-color:#21BDF9"/>
</linearGradient>
<line class="st14" x1="407.42" y1="536.3" x2="541.97" y2="617.1"/>
<path class="st15" d="M303.89,214.32l-15.76,9.64c-1.88,0.9-4.15,0.1-5.05-1.77l-2.03-14.91c-0.9-1.88-0.1-4.15,1.77-5.05
	l15.76-9.64c1.88-0.9,4.15-0.1,5.05,1.77l2.03,14.91C306.56,211.14,305.77,213.42,303.89,214.32z"/>
<path class="st15" d="M307.17,245.59l-15.76,9.64c-1.88,0.9-4.15,0.1-5.05-1.77l-1.18-14.91c-0.9-1.88-0.1-4.15,1.77-5.05
	l15.76-9.64c1.88-0.9,4.15-0.1,5.05,1.77l1.18,14.91C309.84,242.41,309.05,244.68,307.17,245.59z"/>
<path class="st15" d="M310.78,277.7l-15.76,9.64c-1.88,0.9-4.15,0.1-5.05-1.77l-1.18-14.91c-0.9-1.88-0.1-4.15,1.77-5.05l15.76-9.64
	c1.88-0.9,4.15-0.1,5.05,1.77l1.18,14.91C313.45,274.53,312.66,276.8,310.78,277.7z"/>
<line class="st16" x1="295.14" y1="219.67" x2="295.14" y2="228.49"/>
<line class="st16" x1="298.28" y1="251.03" x2="298.28" y2="260.89"/>
<polyline class="st17" points="301.87,283.15 303.25,296.76 177.79,369.27 "/>
<polygon class="st15" points="261.1,219.67 268.29,298.65 278.02,293.58 269.56,214.07 "/>
<polygon class="st15" points="248.22,239.23 254.57,308.06 264.29,302.99 257.53,233.63 "/>
<polygon class="st15" points="237.66,270.32 241,314.6 250,309.9 246.28,265.13 "/>
<polygon class="st15" points="223.88,270.65 227.21,323.38 236.22,318.68 232.49,265.46 "/>
<polygon class="st15" points="211.54,285.92 214.87,329.35 223.88,324.65 220.15,280.73 "/>
<polygon class="st15" points="196.93,306.43 200.26,337.17 209.27,332.48 206.39,301.24 "/>
<polygon class="st15" points="184.01,311.49 187.34,347.31 196.35,342.61 192.62,306.31 "/>
<polygon class="st15" points="171.67,332.21 173.31,354.5 182.32,349.8 180.28,327.03 "/>
<g>
	<path class="st15" d="M364.79,335.7l-5.63,3.53c-0.82,0.51-1.9,0.26-2.41-0.55l-3.53-5.63c-0.51-0.82-0.26-1.9,0.55-2.41l5.63-3.53
		c0.82-0.51,1.9-0.26,2.41,0.55l3.53,5.63C365.85,334.11,365.6,335.19,364.79,335.7z"/>
	<path class="st15" d="M354.81,341.97l-5.63,3.53c-0.82,0.51-1.9,0.26-2.41-0.55l-3.53-5.63c-0.51-0.82-0.26-1.9,0.55-2.41
		l5.63-3.53c0.82-0.51,1.9-0.26,2.41,0.55l3.53,5.63C355.87,340.37,355.62,341.46,354.81,341.97z"/>
	<path class="st15" d="M344.83,348.23l-5.63,3.53c-0.82,0.51-1.9,0.26-2.41-0.55l-3.53-5.63c-0.51-0.82-0.26-1.9,0.55-2.41
		l5.63-3.53c0.82-0.51,1.9-0.26,2.41,0.55l3.53,5.63C345.89,346.63,345.64,347.72,344.83,348.23z"/>
	<path class="st15" d="M334.85,354.5l-5.63,3.53c-0.82,0.51-1.9,0.26-2.41-0.55l-3.53-5.63c-0.51-0.82-0.26-1.9,0.55-2.41l5.63-3.53
		c0.82-0.51,1.9-0.26,2.41,0.55l3.53,5.63C335.91,352.9,335.66,353.98,334.85,354.5z"/>
	<path class="st15" d="M324.87,360.76l-5.63,3.53c-0.82,0.51-1.9,0.26-2.41-0.55l-3.53-5.63c-0.51-0.82-0.26-1.9,0.55-2.41
		l5.63-3.53c0.82-0.51,1.9-0.26,2.41,0.55l3.53,5.63C325.93,359.16,325.68,360.25,324.87,360.76z"/>
	<path class="st15" d="M314.89,367.02l-5.63,3.53c-0.82,0.51-1.9,0.26-2.41-0.55l-3.53-5.63c-0.51-0.82-0.26-1.9,0.55-2.41
		l5.63-3.53c0.82-0.51,1.9-0.26,2.41,0.55l3.53,5.63C315.95,365.43,315.7,366.51,314.89,367.02z"/>
	<path class="st15" d="M304.91,373.29l-5.63,3.53c-0.82,0.51-1.9,0.26-2.41-0.55l-3.53-5.63c-0.51-0.82-0.26-1.9,0.55-2.41
		l5.63-3.53c0.82-0.51,1.9-0.26,2.41,0.55l3.53,5.63C305.97,371.69,305.72,372.78,304.91,373.29z"/>
	<path class="st15" d="M294.93,379.55l-5.63,3.53c-0.82,0.51-1.9,0.26-2.41-0.55l-3.53-5.63c-0.51-0.82-0.26-1.9,0.55-2.41
		l5.63-3.53c0.82-0.51,1.9-0.26,2.41,0.55l3.53,5.63C295.99,377.95,295.74,379.04,294.93,379.55z"/>
	<path class="st15" d="M284.95,385.82l-5.63,3.53c-0.82,0.51-1.9,0.26-2.41-0.55l-3.53-5.63c-0.51-0.82-0.26-1.9,0.55-2.41
		l5.63-3.53c0.82-0.51,1.9-0.26,2.41,0.55l3.53,5.63C286.01,384.22,285.76,385.3,284.95,385.82z"/>
	<path class="st15" d="M274.97,392.08l-5.63,3.53c-0.82,0.51-1.9,0.26-2.41-0.55l-3.53-5.63c-0.51-0.82-0.26-1.9,0.55-2.41
		l5.63-3.53c0.82-0.51,1.9-0.26,2.41,0.55l3.53,5.63C276.03,390.48,275.78,391.57,274.97,392.08z"/>
	<path class="st15" d="M264.99,398.34l-5.63,3.53c-0.82,0.51-1.9,0.26-2.41-0.55l-3.53-5.63c-0.51-0.82-0.26-1.9,0.55-2.41
		l5.63-3.53c0.82-0.51,1.9-0.26,2.41,0.55l3.53,5.63C266.05,396.75,265.8,397.83,264.99,398.34z"/>
	<path class="st15" d="M255.01,404.61l-5.63,3.53c-0.82,0.51-1.9,0.26-2.41-0.55l-3.53-5.63c-0.51-0.82-0.26-1.9,0.55-2.41
		l5.63-3.53c0.82-0.51,1.9-0.26,2.41,0.55l3.53,5.63C256.07,403.01,255.82,404.1,255.01,404.61z"/>
	<path class="st15" d="M245.03,410.87l-5.63,3.53c-0.82,0.51-1.9,0.26-2.41-0.55l-3.53-5.63c-0.51-0.82-0.26-1.9,0.55-2.41
		l5.63-3.53c0.82-0.51,1.9-0.26,2.41,0.55l3.53,5.63C246.09,409.28,245.84,410.36,245.03,410.87z"/>
	<path class="st15" d="M235.05,417.14l-5.63,3.53c-0.82,0.51-1.9,0.26-2.41-0.55l-3.53-5.63c-0.51-0.82-0.26-1.9,0.55-2.41
		l5.63-3.53c0.82-0.51,1.9-0.26,2.41,0.55l3.53,5.63C236.11,415.54,235.86,416.63,235.05,417.14z"/>
	<path class="st15" d="M225.07,423.4l-5.63,3.53c-0.82,0.51-1.9,0.26-2.41-0.55l-3.53-5.63c-0.51-0.82-0.26-1.9,0.55-2.41l5.63-3.53
		c0.82-0.51,1.9-0.26,2.41,0.55l3.53,5.63C226.13,421.8,225.88,422.89,225.07,423.4z"/>
	<path class="st15" d="M268.76,452.14l-8.63,5.51c-0.69,0.43-1.61,0.22-2.04-0.47l-5.51-3.55c-0.43-0.69-0.22-1.61,0.47-2.04
		l8.63-5.51c0.69-0.43,1.61-0.22,2.04,0.47l5.51,3.55C269.66,450.79,269.45,451.71,268.76,452.14z"/>
	<path class="st15" d="M287.29,441.45l-8.63,5.51c-0.69,0.43-1.61,0.22-2.04-0.47l-5.51-3.55c-0.43-0.69-0.22-1.61,0.47-2.04
		l8.63-5.51c0.69-0.43,1.61-0.22,2.04,0.47l5.51,3.55C288.19,440.1,287.98,441.02,287.29,441.45z"/>
	<path class="st15" d="M365.7,396.62l-8.63,5.51c-0.69,0.43-1.61,0.22-2.04-0.47l-5.51-3.55c-0.43-0.69-0.22-1.61,0.47-2.04
		l8.63-5.51c0.69-0.43,1.61-0.22,2.04,0.47l5.51,3.55C366.6,395.26,366.39,396.18,365.7,396.62z"/>
	<path class="st15" d="M381.39,388l-8.63,5.51c-0.69,0.43-1.61,0.22-2.04-0.47l-5.51-3.55c-0.43-0.69-0.22-1.61,0.47-2.04l8.63-5.51
		c0.69-0.43,1.61-0.22,2.04,0.47l5.51,3.55C382.29,386.64,382.08,387.56,381.39,388z"/>
	<path class="st15" d="M395.64,378.88l-8.63,5.51c-0.69,0.43-1.61,0.22-2.04-0.47l-5.51-3.55c-0.43-0.69-0.22-1.61,0.47-2.04
		l8.63-5.51c0.69-0.43,1.61-0.22,2.04,0.47l5.51,3.55C396.54,377.53,396.33,378.44,395.64,378.88z"/>
	<path class="st15" d="M412.04,368.26l-8.63,5.51c-0.69,0.43-1.61,0.22-2.04-0.47l-5.51-3.55c-0.43-0.69-0.22-1.61,0.47-2.04
		l8.63-5.51c0.69-0.43,1.61-0.22,2.04,0.47l5.51,3.55C412.94,366.91,412.73,367.83,412.04,368.26z"/>
	<path class="st15" d="M350.25,405.5l-55.18,31.88c-0.69,0.43-1.61,0.22-2.04-0.47l-5.51-3.55c-0.43-0.69-0.22-1.61,0.47-2.04
		l55.18-31.88c0.69-0.43,1.61-0.22,2.04,0.47l5.51,3.55C351.15,404.15,350.94,405.06,350.25,405.5z"/>
	<path class="st15" d="M378.3,344.96l-151.36,89.92c-0.66,0.4-1.42,0.37-1.69-0.07l-5.51-4.08c-0.26-0.44,0.06-1.12,0.73-1.52
		l147.39-88.65c0.66-0.4,1.42-0.37,1.69,0.07l9.48,2.81C379.3,343.88,378.97,344.56,378.3,344.96z"/>
	<path class="st15" d="M389.72,352.21l-151.36,89.92c-0.66,0.4-1.42,0.37-1.69-0.07l-5.51-4.08c-0.26-0.44,0.06-1.12,0.73-1.52
		l147.39-88.65c0.66-0.4,1.42-0.37,1.69,0.07l9.48,2.81C390.71,351.12,390.39,351.81,389.72,352.21z"/>
	<path class="st15" d="M399.73,359.59l-151.36,89.92c-0.66,0.4-1.42,0.37-1.69-0.07l-5.51-4.08c-0.26-0.44,0.06-1.12,0.73-1.52
		l147.39-88.65c0.66-0.4,1.42-0.37,1.69,0.07l9.48,2.81C400.72,358.51,400.39,359.19,399.73,359.59z"/>
</g>
<path class="st18" d="M137.2,422.56l288.58,8.38l-137.19,78.73c0,0-4.32,4.9-19.03-3.54L137.2,422.56z"/>
</svg>
